<svg width="1440" height="320" xmlns="http://www.w3.org/2000/svg">

 <g>
  <title>Layer 1</title>
  <path transform="rotate(-180 720 160)" id="svg_1" d="m0,0l30,26.7c30,26.3 90,80.3 150,90.6c60,10.7 120,-21.3 180,-21.3c60,0 120,32 180,58.7c60,26.3 120,48.3 180,53.3c60,5 120,-5 180,-10.7c60,-5.3 120,-5.3 180,-5.3c60,0 120,0 180,5.3c60,5.7 120,15.7 150,21.4l30,5.3l0,96l-30,0c-30,0 -90,0 -150,0c-60,0 -120,0 -180,0c-60,0 -120,0 -180,0c-60,0 -120,0 -180,0c-60,0 -120,0 -180,0c-60,0 -120,0 -180,0c-60,0 -120,0 -180,0c-60,0 -120,0 -150,0l-30,0l0,-320z" fill="#F2CC8F"/>
 </g>
</svg>